<?xml version="1.0" standalone="no"?>
<!DOCTYPE svg PUBLIC "-//W3C//DTD SVG 20010904//EN"
 "http://www.w3.org/TR/2001/REC-SVG-20010904/DTD/svg10.dtd">
<svg version="1.0" xmlns="http://www.w3.org/2000/svg"
 width="640.000000pt" height="640.000000pt" viewBox="0 0 640.000000 640.000000"
 preserveAspectRatio="xMidYMid meet">
<metadata>
Created by potrace 1.14, written by Peter Selinger 2001-2017
</metadata>
<g transform="translate(0.000000,640.000000) scale(0.100000,-0.100000)"
fill="#000000" stroke="none">
<path d="M3080 4773 l-35 -18 0 -360 c0 -426 3 -442 72 -476 45 -22 102 -20
131 3 18 15 18 817 -1 842 -20 27 -122 33 -167 9z"/>
<path d="M3958 4572 c-14 -9 -34 -30 -43 -47 -10 -16 -26 -39 -35 -50 -9 -11
-23 -36 -30 -55 -8 -19 -24 -47 -36 -62 -13 -16 -26 -38 -30 -50 -4 -13 -19
-41 -34 -63 -14 -22 -32 -55 -39 -72 -8 -18 -17 -33 -21 -33 -4 0 -15 -19 -25
-42 -10 -24 -28 -54 -40 -68 -12 -14 -30 -45 -40 -70 -10 -25 -25 -52 -32 -61
-19 -23 -16 -73 7 -102 11 -14 44 -38 74 -53 52 -26 53 -26 90 -9 20 10 44 31
52 48 9 16 29 48 45 70 16 22 29 45 29 52 0 7 9 24 21 39 12 15 32 47 45 71
13 25 35 66 49 92 14 25 31 54 39 62 8 9 24 36 36 61 11 25 43 83 70 130 63
110 60 132 -26 191 -53 36 -91 43 -126 21z"/>
<path d="M4584 3966 c-34 -12 -71 -32 -84 -44 -13 -12 -32 -22 -41 -22 -10 0
-31 -11 -47 -25 -16 -13 -50 -33 -75 -44 -24 -11 -48 -24 -51 -30 -4 -6 -31
-22 -59 -35 -29 -13 -59 -31 -66 -40 -7 -9 -19 -16 -25 -16 -6 0 -35 -15 -64
-32 -28 -18 -70 -44 -93 -58 -80 -48 -88 -117 -22 -190 33 -36 41 -40 83 -40
34 0 55 6 75 23 27 21 83 52 175 98 25 12 58 32 73 45 16 13 34 24 40 24 7 0
34 15 60 34 26 19 59 37 72 40 14 4 25 11 25 17 0 5 28 23 63 39 117 54 142
92 122 180 -9 44 -20 57 -64 80 -35 17 -37 17 -97 -4z"/>
<path d="M4095 3181 c-20 -4 -35 -16 -45 -36 -19 -39 -19 -121 0 -160 l15 -30
385 -9 c434 -9 461 -7 479 46 14 40 13 104 -3 148 -11 30 -19 36 -52 42 -49 9
-738 8 -779 -1z"/>
<path d="M3928 2642 c-1 -4 -18 -18 -36 -31 -32 -22 -33 -24 -30 -88 l3 -65
49 -20 c28 -10 56 -28 63 -38 7 -10 27 -21 43 -25 17 -4 43 -17 58 -29 15 -13
37 -26 49 -30 12 -4 38 -20 58 -36 20 -16 49 -32 66 -35 16 -4 36 -17 44 -29
9 -13 33 -28 55 -35 22 -6 48 -20 57 -30 10 -9 34 -24 53 -31 19 -7 42 -19 50
-25 34 -28 59 -24 99 13 77 72 74 135 -8 177 -26 13 -53 30 -60 39 -7 8 -26
18 -42 21 -16 4 -47 22 -70 41 -22 19 -51 34 -64 34 -13 0 -30 8 -37 18 -7 10
-35 28 -61 40 -26 12 -50 29 -53 37 -3 8 -22 17 -41 21 -19 4 -49 19 -67 34
-17 15 -55 35 -83 45 -29 11 -53 23 -53 27 0 10 -37 10 -42 0z"/>
<path d="M3608 2253 c6 -2 18 -2 25 0 6 3 1 5 -13 5 -14 0 -19 -2 -12 -5z"/>
<path d="M3590 2225 c-7 -8 -19 -15 -26 -15 -18 0 -18 -19 0 -39 19 -22 28
-88 13 -96 -7 -3 -2 -3 10 -1 18 3 23 -3 33 -40 7 -25 19 -44 26 -44 8 0 14
-10 14 -25 0 -14 5 -25 10 -25 6 0 10 -15 10 -33 0 -27 5 -35 28 -43 29 -11
42 -42 42 -100 0 -15 5 -22 13 -18 20 7 46 -27 53 -71 7 -48 11 -55 30 -55 8
0 14 -8 14 -17 0 -32 38 -83 62 -84 13 0 17 -3 11 -6 -7 -2 -13 -9 -13 -14 0
-13 77 -11 85 2 4 6 9 36 11 67 4 60 -10 112 -31 112 -14 0 -25 22 -25 49 0
25 -33 88 -38 73 -8 -26 -32 10 -32 50 0 28 -5 40 -17 45 -29 11 -53 44 -53
72 0 31 -9 45 -32 54 -9 3 -20 22 -24 41 -3 21 -12 36 -20 36 -8 0 -14 6 -14
14 0 7 -7 19 -15 26 -8 7 -17 27 -21 46 -4 24 -12 34 -25 34 -10 0 -21 5 -24
10 -9 15 -41 12 -55 -5z"/>
</g>
</svg>
